# xmcd CD database file
#
# Track frame offsets:
#	150
#	25429
#	44941
#	68993
#	89071
#	112586
#	137641
#	158524
#	186744
#	208070
#	240133
#	262395
#	279318
#	309965
#	328335
#
# Disc length: 4663 seconds
#
# Revision: 0
# Processed by: cddbd v1.5.2PL0 Copyright (c) Steve Scherf et al.
# Submitted via: CDex 1.70beta2
#
DISCID=e312350f
DTITLE=Diana Krall - Body and Soul
DYEAR=1900
DGENRE=Jazz
TTITLE0=Body And Soul
TTITLE1=Folks Who Live on the Hill
TTITLE2=Only Trust Your Heart
TTITLE3=I'm Thru With Love
TTITLE4=A Blossom Fell
TTITLE5=You're Looking at Me
TTITLE6=You Call It Madness
TTITLE7=I Don't Stand a Ghost of a Chance with You
TTITLE8=I Miss You So
TTITLE9=And I Love Him
TTITLE10=Love Letters
TTITLE11=I Get Along Without You Very Well
TTITLE12=You Go To My Head
TTITLE13=Almost Blue
TTITLE14=I've Grown Accustomed To His Face
EXTD=
EXTT0=
EXTT1=
EXTT2=
EXTT3=
EXTT4=
EXTT5=
EXTT6=
EXTT7=
EXTT8=
EXTT9=
EXTT10=
EXTT11=
EXTT12=
EXTT13=
EXTT14=
PLAYORDER=
